<mxfile host="Electron" agent="Mozilla/5.0 (Windows NT 10.0; Win64; x64) AppleWebKit/537.36 (KHTML, like Gecko) draw.io/24.7.17 Chrome/128.0.6613.36 Electron/32.0.1 Safari/537.36" version="24.7.17" pages="3">
  <diagram name="top1" id="UuW0K6QfzV-sTt0LpjAu">
    <mxGraphModel dx="1877" dy="621" grid="1" gridSize="10" guides="1" tooltips="1" connect="1" arrows="1" fold="1" page="1" pageScale="1" pageWidth="827" pageHeight="1169" math="0" shadow="0">
      <root>
        <mxCell id="0" />
        <mxCell id="1" parent="0" />
        <mxCell id="MenDnKpm6PNHFd6rFko4-11" style="rounded=0;orthogonalLoop=1;jettySize=auto;html=1;exitX=1;exitY=0.5;exitDx=0;exitDy=0;entryX=0;entryY=0.5;entryDx=0;entryDy=0;endArrow=none;endFill=0;" edge="1" parent="1" source="MenDnKpm6PNHFd6rFko4-1" target="MenDnKpm6PNHFd6rFko4-8">
          <mxGeometry relative="1" as="geometry" />
        </mxCell>
        <mxCell id="MenDnKpm6PNHFd6rFko4-1" value="&lt;font style=&quot;font-size: 22px;&quot; face=&quot;Computer Modern Roman&quot;&gt;S/&lt;/font&gt;&lt;font style=&quot;font-size: 15px;&quot; face=&quot;Computer Modern Roman&quot;&gt;4&lt;/font&gt;" style="ellipse;whiteSpace=wrap;html=1;aspect=fixed;fillColor=#f5f5f5;strokeColor=#666666;fontColor=#333333;" vertex="1" parent="1">
          <mxGeometry x="20" y="40" width="50" height="50" as="geometry" />
        </mxCell>
        <mxCell id="MenDnKpm6PNHFd6rFko4-12" style="rounded=0;orthogonalLoop=1;jettySize=auto;html=1;exitX=1;exitY=0.5;exitDx=0;exitDy=0;entryX=0;entryY=0.5;entryDx=0;entryDy=0;endArrow=none;endFill=0;" edge="1" parent="1" source="MenDnKpm6PNHFd6rFko4-2" target="MenDnKpm6PNHFd6rFko4-8">
          <mxGeometry relative="1" as="geometry" />
        </mxCell>
        <mxCell id="MenDnKpm6PNHFd6rFko4-2" value="&lt;font style=&quot;font-size: 22px;&quot; face=&quot;Computer Modern Roman&quot;&gt;S/&lt;/font&gt;&lt;font style=&quot;font-size: 15px;&quot; face=&quot;Computer Modern Roman&quot;&gt;5&lt;/font&gt;" style="ellipse;whiteSpace=wrap;html=1;aspect=fixed;fillColor=#f5f5f5;strokeColor=#666666;fontColor=#333333;" vertex="1" parent="1">
          <mxGeometry x="20" y="110" width="50" height="50" as="geometry" />
        </mxCell>
        <mxCell id="MenDnKpm6PNHFd6rFko4-13" style="rounded=0;orthogonalLoop=1;jettySize=auto;html=1;exitX=1;exitY=0.5;exitDx=0;exitDy=0;entryX=0;entryY=0.5;entryDx=0;entryDy=0;endArrow=none;endFill=0;" edge="1" parent="1" source="MenDnKpm6PNHFd6rFko4-3" target="MenDnKpm6PNHFd6rFko4-8">
          <mxGeometry relative="1" as="geometry" />
        </mxCell>
        <mxCell id="MenDnKpm6PNHFd6rFko4-3" value="&lt;font style=&quot;font-size: 22px;&quot; face=&quot;Computer Modern Roman&quot;&gt;S/&lt;/font&gt;&lt;font style=&quot;font-size: 15px;&quot; face=&quot;Computer Modern Roman&quot;&gt;6&lt;/font&gt;" style="ellipse;whiteSpace=wrap;html=1;aspect=fixed;fillColor=#f5f5f5;strokeColor=#666666;fontColor=#333333;" vertex="1" parent="1">
          <mxGeometry x="20" y="180" width="50" height="50" as="geometry" />
        </mxCell>
        <mxCell id="MenDnKpm6PNHFd6rFko4-16" style="rounded=0;orthogonalLoop=1;jettySize=auto;html=1;exitX=1;exitY=0.5;exitDx=0;exitDy=0;entryX=0;entryY=0.5;entryDx=0;entryDy=0;endArrow=none;endFill=0;" edge="1" parent="1" source="MenDnKpm6PNHFd6rFko4-4" target="MenDnKpm6PNHFd6rFko4-7">
          <mxGeometry relative="1" as="geometry" />
        </mxCell>
        <mxCell id="MenDnKpm6PNHFd6rFko4-4" value="&lt;font style=&quot;font-size: 22px;&quot; face=&quot;Computer Modern Roman&quot;&gt;S/&lt;/font&gt;&lt;font style=&quot;font-size: 15px;&quot; face=&quot;Computer Modern Roman&quot;&gt;9&lt;/font&gt;" style="ellipse;whiteSpace=wrap;html=1;aspect=fixed;fillColor=#f5f5f5;strokeColor=#666666;fontColor=#333333;" vertex="1" parent="1">
          <mxGeometry x="-120" y="320" width="50" height="50" as="geometry" />
        </mxCell>
        <mxCell id="MenDnKpm6PNHFd6rFko4-15" style="rounded=0;orthogonalLoop=1;jettySize=auto;html=1;exitX=1;exitY=0.5;exitDx=0;exitDy=0;entryX=0;entryY=0.5;entryDx=0;entryDy=0;endArrow=none;endFill=0;" edge="1" parent="1" source="MenDnKpm6PNHFd6rFko4-5" target="MenDnKpm6PNHFd6rFko4-7">
          <mxGeometry relative="1" as="geometry" />
        </mxCell>
        <mxCell id="MenDnKpm6PNHFd6rFko4-5" value="&lt;font style=&quot;font-size: 22px;&quot; face=&quot;Computer Modern Roman&quot;&gt;S/&lt;/font&gt;&lt;font style=&quot;font-size: 15px;&quot; face=&quot;Computer Modern Roman&quot;&gt;8&lt;/font&gt;" style="ellipse;whiteSpace=wrap;html=1;aspect=fixed;fillColor=#f5f5f5;strokeColor=#666666;fontColor=#333333;" vertex="1" parent="1">
          <mxGeometry x="-120" y="250" width="50" height="50" as="geometry" />
        </mxCell>
        <mxCell id="MenDnKpm6PNHFd6rFko4-14" style="rounded=0;orthogonalLoop=1;jettySize=auto;html=1;exitX=1;exitY=0.5;exitDx=0;exitDy=0;entryX=0;entryY=0.5;entryDx=0;entryDy=0;endArrow=none;endFill=0;" edge="1" parent="1" source="MenDnKpm6PNHFd6rFko4-6" target="MenDnKpm6PNHFd6rFko4-7">
          <mxGeometry relative="1" as="geometry" />
        </mxCell>
        <mxCell id="MenDnKpm6PNHFd6rFko4-6" value="&lt;font style=&quot;font-size: 22px;&quot; face=&quot;Computer Modern Roman&quot;&gt;S/&lt;/font&gt;&lt;font style=&quot;font-size: 15px;&quot; face=&quot;Computer Modern Roman&quot;&gt;7&lt;/font&gt;" style="ellipse;whiteSpace=wrap;html=1;aspect=fixed;fillColor=#f5f5f5;strokeColor=#666666;fontColor=#333333;" vertex="1" parent="1">
          <mxGeometry x="-120" y="180" width="50" height="50" as="geometry" />
        </mxCell>
        <mxCell id="MenDnKpm6PNHFd6rFko4-18" style="rounded=0;orthogonalLoop=1;jettySize=auto;html=1;exitX=1;exitY=0.5;exitDx=0;exitDy=0;entryX=0;entryY=0.5;entryDx=0;entryDy=0;endArrow=none;endFill=0;" edge="1" parent="1" source="MenDnKpm6PNHFd6rFko4-7" target="MenDnKpm6PNHFd6rFko4-8">
          <mxGeometry relative="1" as="geometry" />
        </mxCell>
        <mxCell id="MenDnKpm6PNHFd6rFko4-7" value="&lt;font style=&quot;font-size: 22px;&quot; face=&quot;Computer Modern Roman&quot;&gt;A/&lt;/font&gt;&lt;font style=&quot;font-size: 15px;&quot; face=&quot;Computer Modern Roman&quot;&gt;3&lt;/font&gt;" style="ellipse;whiteSpace=wrap;html=1;aspect=fixed;fillColor=#dae8fc;strokeColor=#6c8ebf;" vertex="1" parent="1">
          <mxGeometry x="20" y="250" width="50" height="50" as="geometry" />
        </mxCell>
        <mxCell id="MenDnKpm6PNHFd6rFko4-17" style="rounded=0;orthogonalLoop=1;jettySize=auto;html=1;exitX=1;exitY=0.5;exitDx=0;exitDy=0;entryX=0;entryY=0.5;entryDx=0;entryDy=0;endArrow=none;endFill=0;" edge="1" parent="1" source="MenDnKpm6PNHFd6rFko4-8" target="MenDnKpm6PNHFd6rFko4-9">
          <mxGeometry relative="1" as="geometry" />
        </mxCell>
        <mxCell id="MenDnKpm6PNHFd6rFko4-8" value="&lt;font style=&quot;font-size: 22px;&quot; face=&quot;Computer Modern Roman&quot;&gt;A/&lt;/font&gt;&lt;font style=&quot;font-size: 15px;&quot; face=&quot;Computer Modern Roman&quot;&gt;2&lt;/font&gt;" style="ellipse;whiteSpace=wrap;html=1;aspect=fixed;fillColor=#dae8fc;strokeColor=#6c8ebf;" vertex="1" parent="1">
          <mxGeometry x="170" y="110" width="50" height="50" as="geometry" />
        </mxCell>
        <mxCell id="MenDnKpm6PNHFd6rFko4-9" value="&lt;font style=&quot;font-size: 22px;&quot; face=&quot;Computer Modern Roman&quot;&gt;A/&lt;/font&gt;&lt;font style=&quot;font-size: 15px;&quot; face=&quot;Computer Modern Roman&quot;&gt;1&lt;/font&gt;" style="ellipse;whiteSpace=wrap;html=1;aspect=fixed;fillColor=#dae8fc;strokeColor=#6c8ebf;" vertex="1" parent="1">
          <mxGeometry x="310" y="110" width="50" height="50" as="geometry" />
        </mxCell>
        <mxCell id="MenDnKpm6PNHFd6rFko4-10" value="" style="image;points=[];aspect=fixed;html=1;align=center;shadow=0;dashed=0;image=img/lib/allied_telesis/computer_and_terminals/Laptop.svg;" vertex="1" parent="1">
          <mxGeometry x="297.21" y="217.4" width="71.58" height="72.6" as="geometry" />
        </mxCell>
        <mxCell id="MenDnKpm6PNHFd6rFko4-19" style="rounded=0;orthogonalLoop=1;jettySize=auto;html=1;exitX=0.5;exitY=1;exitDx=0;exitDy=0;entryX=0.522;entryY=0.025;entryDx=0;entryDy=0;entryPerimeter=0;endArrow=none;endFill=0;" edge="1" parent="1" source="MenDnKpm6PNHFd6rFko4-9" target="MenDnKpm6PNHFd6rFko4-10">
          <mxGeometry relative="1" as="geometry" />
        </mxCell>
      </root>
    </mxGraphModel>
  </diagram>
  <diagram id="4oNQ1_1olOYNEdyRd7ZJ" name="top2">
    <mxGraphModel dx="1050" dy="621" grid="1" gridSize="10" guides="1" tooltips="1" connect="1" arrows="1" fold="1" page="1" pageScale="1" pageWidth="827" pageHeight="1169" math="0" shadow="0">
      <root>
        <mxCell id="0" />
        <mxCell id="1" parent="0" />
        <mxCell id="2382SJI5snDZ3EPNTtdw-1" style="rounded=0;orthogonalLoop=1;jettySize=auto;html=1;exitX=1;exitY=0.5;exitDx=0;exitDy=0;entryX=0;entryY=0.5;entryDx=0;entryDy=0;endArrow=none;endFill=0;" edge="1" parent="1" source="2382SJI5snDZ3EPNTtdw-2" target="2382SJI5snDZ3EPNTtdw-16">
          <mxGeometry relative="1" as="geometry" />
        </mxCell>
        <mxCell id="2382SJI5snDZ3EPNTtdw-2" value="&lt;font style=&quot;font-size: 22px;&quot; face=&quot;Computer Modern Roman&quot;&gt;S/&lt;/font&gt;&lt;font style=&quot;font-size: 15px;&quot; face=&quot;Computer Modern Roman&quot;&gt;4&lt;/font&gt;" style="ellipse;whiteSpace=wrap;html=1;aspect=fixed;fillColor=#f5f5f5;strokeColor=#666666;fontColor=#333333;" vertex="1" parent="1">
          <mxGeometry x="20" y="40" width="50" height="50" as="geometry" />
        </mxCell>
        <mxCell id="2382SJI5snDZ3EPNTtdw-3" style="rounded=0;orthogonalLoop=1;jettySize=auto;html=1;exitX=1;exitY=0.5;exitDx=0;exitDy=0;entryX=0;entryY=0.5;entryDx=0;entryDy=0;endArrow=none;endFill=0;" edge="1" parent="1" source="2382SJI5snDZ3EPNTtdw-4" target="2382SJI5snDZ3EPNTtdw-16">
          <mxGeometry relative="1" as="geometry" />
        </mxCell>
        <mxCell id="2382SJI5snDZ3EPNTtdw-4" value="&lt;font style=&quot;font-size: 22px;&quot; face=&quot;Computer Modern Roman&quot;&gt;S/&lt;/font&gt;&lt;font style=&quot;font-size: 15px;&quot; face=&quot;Computer Modern Roman&quot;&gt;5&lt;/font&gt;" style="ellipse;whiteSpace=wrap;html=1;aspect=fixed;fillColor=#f5f5f5;strokeColor=#666666;fontColor=#333333;" vertex="1" parent="1">
          <mxGeometry x="20" y="110" width="50" height="50" as="geometry" />
        </mxCell>
        <mxCell id="2382SJI5snDZ3EPNTtdw-5" style="rounded=0;orthogonalLoop=1;jettySize=auto;html=1;exitX=1;exitY=0.5;exitDx=0;exitDy=0;entryX=0;entryY=0.5;entryDx=0;entryDy=0;endArrow=none;endFill=0;" edge="1" parent="1" source="2382SJI5snDZ3EPNTtdw-6" target="2382SJI5snDZ3EPNTtdw-16">
          <mxGeometry relative="1" as="geometry" />
        </mxCell>
        <mxCell id="2382SJI5snDZ3EPNTtdw-6" value="&lt;font style=&quot;font-size: 22px;&quot; face=&quot;Computer Modern Roman&quot;&gt;S/&lt;/font&gt;&lt;font style=&quot;font-size: 15px;&quot; face=&quot;Computer Modern Roman&quot;&gt;6&lt;/font&gt;" style="ellipse;whiteSpace=wrap;html=1;aspect=fixed;fillColor=#f5f5f5;strokeColor=#666666;fontColor=#333333;" vertex="1" parent="1">
          <mxGeometry x="20" y="180" width="50" height="50" as="geometry" />
        </mxCell>
        <mxCell id="2382SJI5snDZ3EPNTtdw-15" style="rounded=0;orthogonalLoop=1;jettySize=auto;html=1;exitX=1;exitY=0.5;exitDx=0;exitDy=0;entryX=0;entryY=0.5;entryDx=0;entryDy=0;endArrow=none;endFill=0;" edge="1" parent="1" source="2382SJI5snDZ3EPNTtdw-16" target="2382SJI5snDZ3EPNTtdw-17">
          <mxGeometry relative="1" as="geometry" />
        </mxCell>
        <mxCell id="2382SJI5snDZ3EPNTtdw-16" value="&lt;font style=&quot;font-size: 22px;&quot; face=&quot;Computer Modern Roman&quot;&gt;A/&lt;/font&gt;&lt;font style=&quot;font-size: 15px;&quot; face=&quot;Computer Modern Roman&quot;&gt;2&lt;/font&gt;" style="ellipse;whiteSpace=wrap;html=1;aspect=fixed;fillColor=#dae8fc;strokeColor=#6c8ebf;" vertex="1" parent="1">
          <mxGeometry x="170" y="110" width="50" height="50" as="geometry" />
        </mxCell>
        <mxCell id="2382SJI5snDZ3EPNTtdw-17" value="&lt;font style=&quot;font-size: 22px;&quot; face=&quot;Computer Modern Roman&quot;&gt;A/&lt;/font&gt;&lt;font style=&quot;font-size: 15px;&quot; face=&quot;Computer Modern Roman&quot;&gt;1&lt;/font&gt;" style="ellipse;whiteSpace=wrap;html=1;aspect=fixed;fillColor=#dae8fc;strokeColor=#6c8ebf;" vertex="1" parent="1">
          <mxGeometry x="310" y="110" width="50" height="50" as="geometry" />
        </mxCell>
        <mxCell id="2382SJI5snDZ3EPNTtdw-18" value="" style="image;points=[];aspect=fixed;html=1;align=center;shadow=0;dashed=0;image=img/lib/allied_telesis/computer_and_terminals/Laptop.svg;" vertex="1" parent="1">
          <mxGeometry x="297.21" y="217.4" width="71.58" height="72.6" as="geometry" />
        </mxCell>
        <mxCell id="2382SJI5snDZ3EPNTtdw-19" style="rounded=0;orthogonalLoop=1;jettySize=auto;html=1;exitX=0.5;exitY=1;exitDx=0;exitDy=0;entryX=0.522;entryY=0.025;entryDx=0;entryDy=0;entryPerimeter=0;endArrow=none;endFill=0;" edge="1" parent="1" source="2382SJI5snDZ3EPNTtdw-17" target="2382SJI5snDZ3EPNTtdw-18">
          <mxGeometry relative="1" as="geometry" />
        </mxCell>
      </root>
    </mxGraphModel>
  </diagram>
  <diagram id="XusiFByXITy1pvXUGYrJ" name="top3">
    <mxGraphModel dx="913" dy="540" grid="1" gridSize="10" guides="1" tooltips="1" connect="1" arrows="1" fold="1" page="1" pageScale="1" pageWidth="827" pageHeight="1169" math="0" shadow="0">
      <root>
        <mxCell id="0" />
        <mxCell id="1" parent="0" />
        <mxCell id="OnxUpgJNcdyqEseeKhwQ-1" style="rounded=0;orthogonalLoop=1;jettySize=auto;html=1;exitX=1;exitY=0.5;exitDx=0;exitDy=0;entryX=0;entryY=0.5;entryDx=0;entryDy=0;endArrow=none;endFill=0;" edge="1" parent="1" source="OnxUpgJNcdyqEseeKhwQ-2" target="OnxUpgJNcdyqEseeKhwQ-8">
          <mxGeometry relative="1" as="geometry" />
        </mxCell>
        <mxCell id="OnxUpgJNcdyqEseeKhwQ-2" value="&lt;font style=&quot;font-size: 22px;&quot; face=&quot;Computer Modern Roman&quot;&gt;S/&lt;/font&gt;&lt;font style=&quot;font-size: 15px;&quot; face=&quot;Computer Modern Roman&quot;&gt;4&lt;/font&gt;" style="ellipse;whiteSpace=wrap;html=1;aspect=fixed;fillColor=#f5f5f5;strokeColor=#666666;fontColor=#333333;" vertex="1" parent="1">
          <mxGeometry x="20" y="40" width="50" height="50" as="geometry" />
        </mxCell>
        <mxCell id="OnxUpgJNcdyqEseeKhwQ-3" style="rounded=0;orthogonalLoop=1;jettySize=auto;html=1;exitX=1;exitY=0.5;exitDx=0;exitDy=0;entryX=0;entryY=0.5;entryDx=0;entryDy=0;endArrow=none;endFill=0;" edge="1" parent="1" source="OnxUpgJNcdyqEseeKhwQ-4" target="OnxUpgJNcdyqEseeKhwQ-8">
          <mxGeometry relative="1" as="geometry" />
        </mxCell>
        <mxCell id="OnxUpgJNcdyqEseeKhwQ-4" value="&lt;font style=&quot;font-size: 22px;&quot; face=&quot;Computer Modern Roman&quot;&gt;S/&lt;/font&gt;&lt;font style=&quot;font-size: 15px;&quot; face=&quot;Computer Modern Roman&quot;&gt;5&lt;/font&gt;" style="ellipse;whiteSpace=wrap;html=1;aspect=fixed;fillColor=#f5f5f5;strokeColor=#666666;fontColor=#333333;" vertex="1" parent="1">
          <mxGeometry x="20" y="110" width="50" height="50" as="geometry" />
        </mxCell>
        <mxCell id="OnxUpgJNcdyqEseeKhwQ-5" style="rounded=0;orthogonalLoop=1;jettySize=auto;html=1;exitX=1;exitY=0.5;exitDx=0;exitDy=0;entryX=0;entryY=0.5;entryDx=0;entryDy=0;endArrow=none;endFill=0;" edge="1" parent="1" source="OnxUpgJNcdyqEseeKhwQ-6" target="OnxUpgJNcdyqEseeKhwQ-8">
          <mxGeometry relative="1" as="geometry" />
        </mxCell>
        <mxCell id="OnxUpgJNcdyqEseeKhwQ-6" value="&lt;font style=&quot;font-size: 22px;&quot; face=&quot;Computer Modern Roman&quot;&gt;S/&lt;/font&gt;&lt;font style=&quot;font-size: 15px;&quot; face=&quot;Computer Modern Roman&quot;&gt;6&lt;/font&gt;" style="ellipse;whiteSpace=wrap;html=1;aspect=fixed;fillColor=#f5f5f5;strokeColor=#666666;fontColor=#333333;" vertex="1" parent="1">
          <mxGeometry x="20" y="180" width="50" height="50" as="geometry" />
        </mxCell>
        <mxCell id="OnxUpgJNcdyqEseeKhwQ-12" style="rounded=0;orthogonalLoop=1;jettySize=auto;html=1;exitX=0.5;exitY=1;exitDx=0;exitDy=0;endArrow=none;endFill=0;" edge="1" parent="1" source="OnxUpgJNcdyqEseeKhwQ-8" target="OnxUpgJNcdyqEseeKhwQ-10">
          <mxGeometry relative="1" as="geometry" />
        </mxCell>
        <mxCell id="OnxUpgJNcdyqEseeKhwQ-8" value="&lt;font style=&quot;font-size: 22px;&quot; face=&quot;Computer Modern Roman&quot;&gt;A/&lt;/font&gt;&lt;font style=&quot;font-size: 15px;&quot; face=&quot;Computer Modern Roman&quot;&gt;2&lt;/font&gt;" style="ellipse;whiteSpace=wrap;html=1;aspect=fixed;fillColor=#dae8fc;strokeColor=#6c8ebf;" vertex="1" parent="1">
          <mxGeometry x="170" y="110" width="50" height="50" as="geometry" />
        </mxCell>
        <mxCell id="OnxUpgJNcdyqEseeKhwQ-10" value="" style="image;points=[];aspect=fixed;html=1;align=center;shadow=0;dashed=0;image=img/lib/allied_telesis/computer_and_terminals/Laptop.svg;" vertex="1" parent="1">
          <mxGeometry x="159.20999999999998" y="210" width="71.58" height="72.6" as="geometry" />
        </mxCell>
      </root>
    </mxGraphModel>
  </diagram>
</mxfile>
